<svg width="512" height="512" viewBox="0 0 512 512" fill="none" xmlns="http://www.w3.org/2000/svg">
  <rect width="512" height="512" rx="96" fill="url(#paint0_linear_1_2)"/>
  <path d="M151 112H336L408 184V382C408 399.673 393.673 414 376 414H151C133.327 414 119 399.673 119 382V144C119 126.327 133.327 112 151 112Z" stroke="white" stroke-width="16"/>
  <path d="M336 112V160C336 173.255 346.745 184 360 184H408" stroke="white" stroke-width="16" stroke-linejoin="round"/>
  <rect x="66" y="138" width="236" height="96" rx="32" fill="white"/>
  <text x="107" y="202" fill="#E63A27" font-family="Arial, Helvetica, sans-serif" font-size="52" font-weight="800">.PDF</text>
  <g fill="white">
    <path d="M230 256H258L263 277L281 266L301 286L290 304L312 310V338L290 344L301 362L281 382L263 371L258 392H230L224 371L206 382L186 362L197 344L176 338V310L197 304L186 286L206 266L224 277L230 256ZM244 299C231.85 299 222 308.85 222 321C222 333.15 231.85 343 244 343C256.15 343 266 333.15 266 321C266 308.85 256.15 299 244 299Z"/>
    <path d="M318 303H341L346 320L361 311L378 328L369 343L386 348V371L369 376L378 391L361 408L346 399L341 416H318L313 399L298 408L281 391L290 376L273 371V348L290 343L281 328L298 311L313 320L318 303ZM330 338C319.507 338 311 346.507 311 357C311 367.493 319.507 376 330 376C340.493 376 349 367.493 349 357C349 346.507 340.493 338 330 338Z"/>
    <path d="M213 369H231L235 382L247 375L260 388L253 400L267 404V422L253 426L260 438L247 451L235 444L231 457H213L209 444L197 451L184 438L191 426L177 422V404L191 400L184 388L197 375L209 382L213 369ZM222 397C214.82 397 209 402.82 209 410C209 417.18 214.82 423 222 423C229.18 423 235 417.18 235 410C235 402.82 229.18 397 222 397Z"/>
  </g>
  <defs>
    <linearGradient id="paint0_linear_1_2" x1="85" y1="48" x2="430" y2="470" gradientUnits="userSpaceOnUse">
      <stop stop-color="#FF4834"/>
      <stop offset="1" stop-color="#ED1F1F"/>
    </linearGradient>
  </defs>
</svg>
